<?xml version="1.0" standalone="no"?>
<!DOCTYPE svg PUBLIC "-//W3C//DTD SVG 20010904//EN"
 "http://www.w3.org/TR/2001/REC-SVG-20010904/DTD/svg10.dtd">
<svg version="1.0" xmlns="http://www.w3.org/2000/svg"
 width="720.000000pt" height="720.000000pt" viewBox="0 0 720.000000 720.000000"
 preserveAspectRatio="xMidYMid meet">

<g transform="translate(0.000000,720.000000) scale(0.100000,-0.100000)"
fill="#000000" stroke="none">
<path d="M3097 5599 c-188 -21 -398 -84 -568 -169 -518 -260 -862 -755 -929
-1335 -13 -117 -13 -873 0 -990 15 -131 37 -226 80 -356 208 -628 760 -1072
1425 -1149 117 -13 873 -13 990 0 131 15 226 37 356 80 628 208 1072 760 1149
1425 6 56 10 472 10 1090 0 1088 2 1053 -56 1167 -34 67 -125 158 -192 192
-114 58 -77 56 -1182 55 -558 -1 -1046 -5 -1083 -10z m733 -1082 c136 -33 230
-67 360 -132 159 -80 314 -187 433 -298 44 -42 31 -107 -22 -107 -5 0 -40 27
-77 60 -145 128 -313 233 -489 305 -60 24 -111 43 -112 41 -2 -2 12 -27 32
-56 47 -70 77 -171 73 -246 l-3 -59 -344 -3 c-361 -2 -371 -1 -371 42 0 45 8
46 323 46 l299 0 -7 38 c-19 103 -115 221 -219 269 -54 25 -72 28 -161 28 -93
0 -105 -2 -166 -32 -80 -39 -150 -111 -187 -191 -24 -50 -27 -69 -27 -157 0
-93 2 -105 32 -166 39 -80 111 -150 191 -187 50 -24 69 -27 157 -27 89 0 107
3 162 29 41 19 82 49 123 92 62 64 93 77 118 52 54 -54 -102 -210 -255 -258
-43 -13 -93 -20 -148 -20 -144 0 -252 47 -353 154 -161 170 -178 437 -38 619
43 56 47 56 -99 0 -168 -64 -368 -186 -503 -307 -76 -69 -88 -74 -114 -53 -43
34 -25 70 80 157 242 200 525 335 807 385 125 22 372 13 505 -18z m161 -537
c22 -12 26 -59 7 -78 -27 -27 -88 -3 -88 34 0 16 35 54 51 54 6 0 19 -5 30
-10z m-1011 -645 c0 -2 -15 -12 -32 -21 -42 -21 -86 -62 -104 -96 l-15 -28
-159 0 -160 0 0 -60 0 -60 165 0 164 0 16 -29 c17 -35 65 -73 121 -98 39 -18
38 -18 -213 -21 l-253 -2 0 -65 0 -65 350 0 c337 0 351 1 370 20 40 40 18 73
-75 115 -83 38 -137 82 -155 125 -7 18 -11 58 -8 99 3 60 8 75 34 108 17 20
50 47 75 60 l44 22 778 1 777 0 -1 -22 c0 -13 -6 -45 -13 -73 l-11 -50 -147
-3 -146 -3 -7 -42 c-4 -23 -9 -50 -11 -59 -5 -17 5 -18 120 -18 143 0 136 6
112 -95 l-11 -50 -127 -3 -126 -3 -11 -50 c-19 -85 -29 -79 144 -79 l155 0 -6
-32 c-4 -18 -9 -49 -13 -68 l-7 -35 -242 -3 c-190 -2 -242 0 -242 10 0 7 23
128 50 268 28 140 50 256 50 258 0 1 -96 2 -214 2 l-214 0 -11 -50 c-6 -28
-11 -55 -11 -60 0 -6 53 -10 125 -10 94 0 125 -3 125 -12 -1 -7 -6 -40 -13
-73 l-13 -60 -129 -5 -129 -5 -8 -40 c-4 -22 -10 -50 -13 -62 l-5 -23 155 0
c176 0 165 7 144 -90 l-11 -50 -243 0 -243 0 14 73 c8 39 31 160 52 267 l38
195 -204 3 c-216 3 -232 0 -232 -43 0 -29 18 -44 118 -95 105 -54 134 -90 140
-170 7 -98 -31 -170 -109 -210 -36 -19 -61 -20 -494 -20 l-455 0 0 345 0 345
305 0 c168 0 305 -2 305 -5z m1821 -20 c7 -19 8 -19 8 3 1 12 6 22 11 22 6 0
10 -24 10 -52 0 -38 -3 -49 -10 -38 -5 8 -10 10 -10 3 0 -6 -8 -10 -17 -9 -12
2 -20 15 -24 42 l-6 39 -2 -37 c-2 -52 -21 -60 -21 -9 0 23 -5 41 -11 41 -5 0
-7 5 -4 10 11 18 67 7 76 -15z"/>
</g>
</svg>
