<?xml version="1.0" encoding="utf-8"?>
<!-- Generator: Adobe Illustrator 26.2.1, SVG Export Plug-In . SVG Version: 6.00 Build 0)  -->
<svg version="1.1" id="Layer_1" xmlns="http://www.w3.org/2000/svg" xmlns:xlink="http://www.w3.org/1999/xlink" x="0px" y="0px"
	 viewBox="0 0 155 47" style="enable-background:new 0 0 155 47;" xml:space="preserve">
<style type="text/css">
	.st0{opacity:0.5;fill:#FFFFFF;enable-background:new    ;}
	.st1{opacity:0.7;fill:#FFFFFF;enable-background:new    ;}
	.st2{fill:#023E8A;}
	.st3{fill:#FFFFFF;}
</style>
<g>
	<g>
		<path class="st0" d="M51.8,1.7H35.4c-8.3,0-15,6.7-15,15v5.5c0,8.3,6.7,15,15,15h5.5c8.3,0,15-6.7,15-15V5.9
			C56,3.6,54.1,1.7,51.8,1.7z"/>
		<path class="st0" d="M47.9,5.7H31.4c-8.3,0-15,6.7-15,15v5.5c0,8.3,6.7,15,15,15H37c8.3,0,15-6.7,15-15V9.9
			C52,7.6,50.2,5.7,47.9,5.7z"/>
		<path class="st1" d="M43.9,9.6H27.5c-8.3,0-15,6.7-15,15v5.5c0,8.3,6.7,15,15,15H33c8.3,0,15-6.7,15-15V13.8
			C48.1,11.5,46.2,9.6,43.9,9.6z"/>
		<g>
			<g>
				<path class="st2" d="M45.3,27.4c-0.1-0.1-1.6-1.6-4.2-3.3c-2.3-1.4-5.8-3.1-10-3.3c-0.2,0-0.4,0-0.7,0h-0.1l0,0l0,0l0,0l0,0
					c-4.6,0.1-8.4,1.9-10.9,3.3c-2.6,1.6-4.1,3.2-4.2,3.3c-0.2,0.3-0.2,0.7,0,0.9c0.1,0.1,0.3,0.2,0.4,0.2c0.2,0,0.3-0.1,0.5-0.2
					c0,0,3.8-3.9,9.6-5.5c-1.2,1.2-1.9,2.8-1.9,4.7c0,3.4,2.6,6.3,6,6.6c2.5,0.2,4.8-0.9,6.1-2.9c0.1-0.1,0.1-0.3,0.1-0.4
					c0-0.2-0.1-0.4-0.3-0.5c-0.3-0.2-0.7-0.1-0.9,0.2c-1,1.5-2.7,2.4-4.5,2.4c-2.9,0-5.3-2.4-5.3-5.3s2.3-5.3,5.2-5.3
					c0.2,0,0.5,0,0.7,0c2.5,0.3,4.4,2.2,4.7,4.7h-7.8c-0.3,0-0.6,0.2-0.7,0.6c0,0.4,0.3,0.7,0.6,0.7h8.5l0,0l0,0
					c0.3,0,0.6-0.2,0.6-0.6c0-1.8-0.7-3.4-1.8-4.6c5.5,1.7,9.1,5.4,9.2,5.4c0.1,0.1,0.3,0.2,0.5,0.2s0.3-0.1,0.4-0.2
					c0.1-0.1,0.2-0.3,0.2-0.5C45.5,27.7,45.4,27.6,45.3,27.4z"/>
			</g>
			<g>
				<path class="st2" d="M36.8,29c0.1,0.5-0.3,0.9-0.8,0.8c-0.2-0.1-0.4-0.2-0.5-0.5c-0.1-0.5,0.3-0.9,0.8-0.8
					C36.5,28.6,36.7,28.8,36.8,29z"/>
			</g>
		</g>
	</g>
	<g>
		<g>
			<path class="st3" d="M137.5,16.9l0.9-4.4h-7.2l0,0H88.3c-0.4,0.1-0.7,0.2-1.1,0.4c-1.3,0.6-2.3,1.4-3,2.4c-0.3,0.5-0.6,1-0.7,1.5
				v0.1c-0.2,0.6-0.3,1.3-0.3,2.1c0,0.8,0.1,1.5,0.3,2.1c0.2,0.6,0.5,1.2,0.9,1.6c0.8,1,2.1,1.9,4,2.6c0.2,0.1,0.3,0.1,0.5,0.2
				c0.7,0.3,1.2,0.5,1.6,0.8c0.5,0.3,0.8,0.5,1,0.8s0.3,0.6,0.3,1c0,0.7-0.3,1.2-0.9,1.6c-0.2,0.1-0.4,0.2-0.7,0.3H67.7v-4.5h5.1h5
				h6c-0.1-0.1-0.3-0.1-0.5-0.2c-1.8-0.7-3.2-1.6-4-2.6c-0.4-0.5-0.7-1-0.9-1.6h-0.7h-5h-5.1v-4.2h10.6v-0.1c0.2-0.5,0.4-1,0.7-1.5
				c0.7-1,1.7-1.8,3-2.4c0.3-0.2,0.7-0.3,1.1-0.4h-5.3h-10h-4.4v4.4v17.6h1.4h3H92c1.1-0.3,2.1-0.8,3-1.4c1-0.8,1.7-1.8,2.1-3
				c0.2-0.7,0.3-1.4,0.3-2.2c0-1.1-0.2-2-0.5-2.8c-0.4-0.8-0.9-1.5-1.8-2.1c-0.8-0.6-1.9-1.2-3.3-1.8c-1.2-0.5-1.9-0.9-2.3-1.2
				c-0.4-0.3-0.6-0.8-0.6-1.2c0-0.6,0.3-1.1,0.8-1.5c0.2-0.1,0.3-0.2,0.5-0.3h3.7h9.4l-3.4,17.6h15.5l0.8-4.4h-10.1l0.9-4.5h8.2
				l0.9-4.4h-8.2l0.8-4.2h14.1l-3.4,17.6h15.5l0.8-4.4h-10.1l0.9-4.5h8.2l0.9-4.4h-8.2l0.8-4.2h9.3V16.9z"/>
		</g>
		<g>
			<path class="st3" d="M139.7,12.9h-0.5v-0.4h1.3v0.4H140v2.4h-0.4L139.7,12.9L139.7,12.9z"/>
			<path class="st3" d="M140.8,12.5h0.6l0.3,2l0,0l0.3-2h0.6v2.7h-0.4v-2.1l0,0l-0.3,2.1h-0.4l-0.3-2.1l0,0v2.1h-0.4L140.8,12.5
				L140.8,12.5z"/>
		</g>
	</g>
</g>
</svg>
