<?xml version="1.0" encoding="utf-8"?>
<!-- Generator: Adobe Illustrator 26.2.1, SVG Export Plug-In . SVG Version: 6.00 Build 0)  -->
<svg version="1.1" id="Layer_1" xmlns="http://www.w3.org/2000/svg" xmlns:xlink="http://www.w3.org/1999/xlink" x="0px" y="0px"
	 viewBox="0 0 46 46" style="enable-background:new 0 0 46 46;" xml:space="preserve">
<style type="text/css">
	.st0{fill:#ADE8F4;}
	.st1{fill:#48CAE4;}
	.st2{fill:#023E8A;}
	.st3{fill:#FFFFFF;}
</style>
<g>
	<path class="st0" d="M41.4,0.2H24.2c-8.7,0-15.8,7-15.8,15.8v5.8c0,8.7,7,15.8,15.8,15.8h5.8c8.7,0,15.8-7,15.8-15.8V4.6
		C45.8,2.2,43.8,0.2,41.4,0.2z"/>
	<path class="st1" d="M37.2,4.4H20.1c-8.7,0-15.8,7-15.8,15.8V26c0,8.7,7,15.8,15.8,15.8h5.8c8.7,0,15.8-7,15.8-15.8V8.7
		C41.6,6.2,39.7,4.4,37.2,4.4z"/>
	<path class="st2" d="M33.1,8.5H15.9c-8.7,0-15.8,7-15.8,15.8v5.8c0,8.6,7,15.7,15.8,15.7h5.8c8.7,0,15.8-7,15.8-15.8V12.9
		C37.4,10.4,35.5,8.5,33.1,8.5z"/>
	<g>
		<g>
			<path class="st3" d="M28.9,22.8c0,0-1.1-1.1-2.9-2.2c-1.6-1-4-2.1-6.8-2.3c-0.1,0-0.3,0-0.5,0h-0.1l0,0l0,0l0,0l0,0
				c-3.2,0-5.8,1.3-7.4,2.3c-1.8,1.1-2.8,2.2-2.9,2.2c-0.2,0.2-0.2,0.5,0,0.6c0.1,0.1,0.2,0.1,0.3,0.1s0.2,0,0.3-0.1
				c0,0,2.6-2.7,6.5-3.8c-0.8,0.8-1.3,1.9-1.3,3.2c0,2.3,1.8,4.3,4.1,4.5c1.7,0.2,3.3-0.6,4.2-2c0.1-0.1,0.1-0.2,0.1-0.3
				c0-0.1-0.1-0.2-0.2-0.3c-0.2-0.1-0.5-0.1-0.6,0.1c-0.7,1-1.8,1.6-3.1,1.6c-2,0-3.7-1.6-3.7-3.7c0-2,1.6-3.6,3.6-3.7
				c0.2,0,0.3,0,0.5,0c1.7,0.2,3.1,1.5,3.3,3.2h-5.4c-0.2,0-0.4,0.2-0.5,0.4c0,0.3,0.2,0.5,0.4,0.5h5.8l0,0l0,0
				c0.2,0,0.4-0.2,0.4-0.4c0-1.2-0.5-2.3-1.2-3.2c3.8,1.1,6.2,3.7,6.2,3.7c0.1,0.1,0.2,0.1,0.3,0.1s0.2,0,0.3-0.1
				c0.1-0.1,0.1-0.2,0.1-0.3C29,23,29,22.9,28.9,22.8z"/>
		</g>
		<g>
			<path class="st3" d="M23,23.9c0.1,0.3-0.2,0.6-0.5,0.5c-0.2,0-0.3-0.2-0.3-0.3c-0.1-0.3,0.2-0.6,0.5-0.5C23,23.6,23,23.8,23,23.9
				z"/>
		</g>
		<g>
			<path class="st3" d="M29.2,30.9l0.3-1.3h-2.1l0,0H15c-0.1,0-0.2,0.1-0.3,0.1c-0.4,0.2-0.7,0.4-0.9,0.7c-0.1,0.1-0.2,0.3-0.2,0.4
				l0,0c-0.1,0.2-0.1,0.4-0.1,0.6s0,0.4,0.1,0.6c0.1,0.2,0.1,0.3,0.3,0.5c0.2,0.3,0.6,0.5,1.2,0.8c0,0,0.1,0,0.1,0.1
				c0.2,0.1,0.3,0.2,0.5,0.2c0.1,0.1,0.2,0.2,0.3,0.2c0,0.1,0,0.2,0,0.3c0,0.2-0.1,0.4-0.3,0.5c-0.1,0-0.1,0.1-0.2,0.1H9.1v-1.3h1.5
				H12h1.7c0,0-0.1,0-0.1-0.1c-0.5-0.2-0.9-0.5-1.2-0.8c-0.1-0.1-0.2-0.3-0.3-0.5H12h-1.5H9.1v-1.1h3.1l0,0c0.1-0.2,0.1-0.3,0.2-0.4
				c0.2-0.3,0.5-0.5,0.9-0.7c0.1,0,0.2-0.1,0.3-0.1H12h-3H7.8v1.2V36h0.4h0.9h7c0.3-0.1,0.6-0.2,0.9-0.4c0.3-0.2,0.5-0.5,0.6-0.9
				c0.1-0.2,0.1-0.4,0.1-0.6c0-0.3-0.1-0.6-0.2-0.8c-0.1-0.2-0.3-0.4-0.5-0.6s-0.6-0.4-1-0.5c-0.3-0.1-0.6-0.3-0.7-0.4
				c-0.1-0.1-0.2-0.2-0.2-0.4c0-0.2,0.1-0.3,0.2-0.4c0,0,0.1-0.1,0.2-0.1h1.1h2.7l-1,5.1h4.5l0.2-1.3h-2.9l0.3-1.3h2.4l0.3-1.3h-2.4
				l0.2-1.2h4.1l-1,5.1h4.5l0.2-1.3h-2.9l0.3-1.3h2.4l0.3-1.3h-2.4l0.2-1.2H29.2z"/>
		</g>
		<g>
			<path class="st3" d="M29.9,29.7L29.9,29.7L29.9,29.7l0.3-0.1v0.1h-0.1v0.7h-0.2V29.7z"/>
			<path class="st3" d="M30.2,29.6h0.2l0.1,0.6l0,0l0.1-0.6h0.2v0.8h-0.1v-0.6l0,0l-0.1,0.6h-0.1l-0.1-0.6l0,0v0.6h-0.1L30.2,29.6
				L30.2,29.6z"/>
		</g>
	</g>
</g>
</svg>
