<?xml version="1.0" encoding="utf-8"?>
<!-- Generator: Adobe Illustrator 26.2.1, SVG Export Plug-In . SVG Version: 6.00 Build 0)  -->
<svg version="1.1" id="Layer_1" xmlns="http://www.w3.org/2000/svg" xmlns:xlink="http://www.w3.org/1999/xlink" x="0px" y="0px"
	 viewBox="0 0 46 47" style="enable-background:new 0 0 46 47;" xml:space="preserve">
<style type="text/css">
	.st0{opacity:0.5;fill:#FFFFFF;enable-background:new    ;}
	.st1{opacity:0.7;fill:#FFFFFF;enable-background:new    ;}
	.st2{fill:#023E8A;}
</style>
<g>
	<path class="st0" d="M40.6,1.8H24.2c-8.3,0-15,6.7-15,15v5.5c0,8.3,6.7,15,15,15h5.5c8.3,0,15-6.7,15-15V5.9
		C44.7,3.6,42.9,1.8,40.6,1.8z"/>
	<path class="st0" d="M36.6,5.7H20.2c-8.3,0-15,6.7-15,15v5.5c0,8.3,6.7,15,15,15h5.5c8.3,0,15-6.7,15-15V9.9
		C40.8,7.6,38.9,5.7,36.6,5.7z"/>
	<path class="st1" d="M32.7,9.7H16.3c-8.3,0-15,6.7-15,15v5.5c0,8.3,6.7,15,15,15h5.5c8.3,0,15-6.7,15-15V13.8
		C36.8,11.5,35,9.7,32.7,9.7z"/>
	<g>
		<g>
			<path class="st2" d="M28.7,23.3c0,0-1-1.1-2.7-2.1c-1.5-0.9-3.8-2-6.5-2.1c-0.1,0-0.3,0-0.4,0H19l0,0l0,0l0,0l0,0
				c-3,0-5.5,1.2-7,2.2c-1.7,1-2.7,2.1-2.7,2.1c-0.2,0.2-0.2,0.4,0,0.6c-0.1,0,0,0,0.1,0c0.1,0,0.2,0,0.3-0.1c0,0,2.5-2.6,6.2-3.6
				c-0.8,0.8-1.2,1.8-1.3,3c0,2.2,1.7,4.1,3.9,4.3c1.6,0.1,3.1-0.6,4-1.9c0.1-0.1,0.1-0.2,0.1-0.3c0-0.1-0.1-0.2-0.2-0.3
				C22.3,25,22,25,21.9,25.2c-0.6,1-1.7,1.6-2.9,1.6c-1.9,0-3.5-1.6-3.5-3.5s1.5-3.4,3.4-3.5c0.1,0,0.3,0,0.4,0
				c1.6,0.2,2.9,1.4,3.1,3h-5.1c-0.2,0-0.4,0.2-0.4,0.4c0,0.2,0.2,0.5,0.4,0.5h5.5l0,0l0,0c0.2,0,0.4-0.1,0.4-0.4
				c0-1.2-0.4-2.2-1.2-3c3.6,1.1,5.9,3.5,5.9,3.5c0.1,0.1,0.2,0.1,0.3,0.1c0.1,0,0.2,0,0.3-0.1c0.1-0.1,0.1-0.2,0.1-0.3
				C28.8,23.5,28.7,23.4,28.7,23.3z"/>
		</g>
		<g>
			<path class="st2" d="M23.1,24.4c0.1,0.3-0.2,0.6-0.5,0.5c-0.2,0-0.3-0.2-0.3-0.3c-0.1-0.3,0.2-0.6,0.5-0.5
				C23,24.1,23.1,24.2,23.1,24.4z"/>
		</g>
		<g>
			<path class="st2" d="M29,31l0.2-1.2h-2l0,0H15.5c-0.1,0-0.2,0.1-0.3,0.1c-0.4,0.2-0.6,0.4-0.8,0.7c-0.1,0.1-0.2,0.3-0.2,0.4l0,0
				c-0.1,0.2-0.1,0.4-0.1,0.6s0,0.4,0.1,0.6s0.1,0.3,0.2,0.5c0.2,0.3,0.6,0.5,1.1,0.7c0,0,0.1,0,0.1,0.1c0.2,0.1,0.3,0.1,0.4,0.2
				c0.1,0.1,0.2,0.1,0.3,0.2c0,0.1,0.1,0.2,0.1,0.3c0,0.2-0.1,0.3-0.3,0.4c-0.1,0-0.1,0.1-0.2,0.1H9.8v-1.2h1.4h1.4h1.7
				c0,0-0.1,0-0.1-0.1c-0.5-0.2-0.9-0.4-1.1-0.7c-0.1-0.1-0.2-0.3-0.2-0.5h-0.2h-1.4H9.8V31h2.9l0,0c0-0.1,0.1-0.3,0.2-0.4
				c0.2-0.3,0.5-0.5,0.8-0.7c0.1,0,0.2-0.1,0.3-0.1h-1.4H9.8H8.6V31v4.8H9h0.8h6.7c0.3-0.1,0.6-0.2,0.8-0.4c0.3-0.2,0.5-0.5,0.6-0.8
				C18,34.4,18,34.2,18,34c0-0.3,0-0.6-0.1-0.8s-0.3-0.4-0.5-0.6c-0.2-0.2-0.5-0.3-0.9-0.5c-0.3-0.1-0.5-0.2-0.6-0.3
				c-0.1-0.1-0.2-0.2-0.2-0.3c0-0.2,0.1-0.3,0.2-0.4L16,31h1h2.6l-0.9,4.8H23l0.2-1.2h-2.8l0.2-1.2h2.3l0.2-1.2h-2.3L21,31h3.9
				L24,35.9h4.3l0.2-1.2h-2.8l0.2-1.2h2.3l0.2-1.2h-2.3l0.2-1.2L29,31L29,31z"/>
		</g>
		<g>
			<path class="st2" d="M29.6,29.9h-0.1v-0.1h0.4v0.1h-0.1v0.6h-0.1L29.6,29.9L29.6,29.9z"/>
			<path class="st2" d="M29.9,29.8H30l0.1,0.5l0,0l0.1-0.5h0.2v0.8h-0.1V30l0,0l-0.1,0.6h-0.1L30,30l0,0v0.6h-0.1V29.8z"/>
		</g>
	</g>
</g>
</svg>
